<?xml version="1.0"?>
<svg xmlns="http://www.w3.org/2000/svg" height="512px" viewBox="-39 0 340 340.644" width="512px" class=""><g><path d="m186.902344 194.160156-27.40625-5.570312v-20.097656c14.203125-8.21875 24.167968-22.160157 27.34375-38.257813 12.25-2.492187 20.160156-14.445313 17.667968-26.695313-.835937-4.117187-2.804687-7.921874-5.683593-10.984374 3.875-3.203126 6.125-7.960938 6.140625-12.988282v-17.050781c-.042969-34.507813-28.007813-62.4726562-62.515625-62.515625h-22.734375c-34.511719.0429688-62.476563 28.007812-62.519532 62.515625v17.050781c.019532 5.027344 2.265626 9.785156 6.140626 12.988282-8.546876 9.152343-8.050782 23.503906 1.101562 32.046874 3.042969 2.839844 6.808594 4.789063 10.882812 5.632813 3.175782 16.09375 13.144532 30.039063 27.34375 38.257813v20.078124l-27.40625 5.589844c-43.929687 9.972656-75.054687 49.097656-74.894531 94.148438v47.007812c0 3.136719 2.546875 5.679688 5.683594 5.679688h250.066406c3.140625 0 5.683594-2.542969 5.683594-5.679688v-47.007812c.164063-45.046875-30.960937-84.175782-74.894531-94.148438zm-79.917969 5.148438 16.140625 12.113281-9.714844 12.945313-21.910156-21.910157zm48.207031 0 15.511719 3.105468-21.960937 21.957032-9.707032-12.949219zm-41.382812 42.886718-5.136719 87.4375h-1.195313l-18.96875-114.105468zm7.324218-9.179687 9.949219-13.257813 9.945313 13.257813-9.945313 13.261719zm52.523438-17.488281-18.972656 114.105468h-1.191406l-5.082032-87.523437zm16.605469-99.515625c-.703125.6875-1.492188 1.277343-2.347657 1.753906v-19.570313c5.414063 3.097657 7.292969 9.996094 4.195313 15.410157-.507813.882812-1.125 1.691406-1.847656 2.40625zm-121.699219-53.496094c.03125-28.234375 22.914062-51.117187 51.152344-51.148437h22.734375c28.234375.03125 51.117187 22.914062 51.148437 51.148437v17.050781c0 3.140625-2.542968 5.683594-5.683594 5.683594v-5.683594c0-3.140625-2.542968-5.683594-5.683593-5.683594h-5.679688c-10.804687-.023437-20.667969-6.15625-25.46875-15.832031-1.082031-2.949219-4.34375-4.460937-7.292969-3.382812-1.667968.613281-2.957031 1.972656-3.476562 3.671875-1.96875 5.738281-5.210938 10.953125-9.480469 15.261718-6.011719 6.246094-13.910156 10.339844-22.484375 11.648438h-34.097656c-3.140625 0-5.683594-2.542969-5.683594-5.679688v-17.054687zm0 45.46875c.011719-4.042969 2.179688-7.773437 5.683594-9.789063v19.574219c-3.539063-1.980469-5.714844-5.730469-5.683594-9.785156zm17.050781 11.367187v-22.734374h22.734375c11.601563-1.277344 22.394532-6.570313 30.503906-14.964844 2.992188-3 5.597657-6.367188 7.757813-10.015625 7.5625 8.625 18.46875 13.582031 29.941406 13.613281v34.097656c0 25.109375-20.359375 45.46875-45.46875 45.46875s-45.46875-20.355468-45.46875-45.464844zm45.46875 56.832032c5.78125 0 11.53125-.882813 17.046875-2.621094v16.828125l-17.046875 12.789063-17.050781-12.789063v-16.828125c5.515625 1.738281 11.265625 2.621094 17.050781 2.621094zm-119.351562 112.125c-.128907-38.792969 26.085937-72.730469 63.652343-82.40625l20.574219 123.730468h-38.761719v-51.148437c0-3.140625-2.542968-5.683594-5.679687-5.683594-3.140625 0-5.683594 2.542969-5.683594 5.683594v51.148437h-34.101562zm108.328125 41.324218 4.296875-73.375 2.175781 2.902344c1.882812 2.511719 5.449219 3.019532 7.957031 1.136719.429688-.324219.816407-.707031 1.136719-1.136719l2.214844-2.960937 4.265625 73.433593zm130.371094 0h-34.097657v-51.148437c0-3.140625-2.546875-5.683594-5.683593-5.683594-3.140626 0-5.683594 2.542969-5.683594 5.683594v51.148437h-38.761719l20.574219-123.726562c37.566406 9.675781 63.78125 43.609375 63.652344 82.402344zm0 0" data-original="#000000" class="active-path" data-old_color="#3fb9cb" fill="#3fb9cb"/></g> </svg>
